Notas:
o/f/#
5.45-5.75s

SOX:
Input File     : 'o1_201704121431.wav'
Channels       : 1
Sample Rate    : 48000
Precision      : 16-bit
Duration       : 00:00:07.38 = 354240 samples ~ 553.5 CDDA sectors
File Size      : 709k
Bit Rate       : 768k
Sample Encoding: 16-bit Signed Integer PCM

Input File     : 'o1_201704121431_svu.wav'
Channels       : 1
Sample Rate    : 16000
Precision      : 16-bit
Duration       : 00:00:08.16 = 130560 samples ~ 612 CDDA sectors
File Size      : 261k
Bit Rate       : 256k
Sample Encoding: 16-bit Signed Integer PCM

Frames = 130560/160 = 816

->ministre
->mercedi


inicio de silencio:
57.072 -> 0
parte borrada:
57.862-57.482 = 0.38 -> 0.79
inicio/fin oración:
58.482 - 65.852 = 7.37 -> 0.79 - 8.16

trim: 65.852-57.072=8780 = 8.78s

Unvoiced:
Ch F K P S T Integral TH SS

Voiced:
B D G J L M N R V Y W Z Vocales

Intervalos VUS:
#	57.072 	57.862	0.79	S
L	58.482	58.572	0.09	V
ə 	58.572	58.672	0.1		V
S 	58.672	58.792	0.12	U
(ə)	58.792	58.832	0.04	V
K 	58.832	58.872	0.04	U
R 	58.872	58.902	0.03	V
e 	58.902	58.982	0.08	V
t 	58.982	59.052	0.07	U
ɛ 	59.052	59.122	0.07	V
R 	59.122	59.172	0.05	V
d 	59.172	59.212	0.04	V
e 	59.212	59.292	0.08	V
t 	59.292	59.382	0.09	U
a 	59.382	59.452	0.07	V
a 	59.452	59.502	0.05	V
m 	59.502	59.552	0.05	V
e 	59.552	59.612	0.06	V
R 	59.612	59.662	0.05	V
i 	59.662	59.742	0.08	V
K 	59.742	59.832	0.09	U
ɛ̃ 	59.832 	60.032	0.2		V
R 	60.032	60.092	0.06 	V
ɛ 	60.092	60.162	0.07	V
k 	60.162 	60.242	0.08	U
s 	60.242 	60.322 	0.08	U
t 	60.322	60.422	0.1		U
i 	60.422	60.462	0.04	V
j 	60.462	60.522	0.06	V
ɛ 	60.522	60.682	0.16	V
s 	60.682	60.842	0.16	U
ɔ̃ 	60.842 	61.062	0.22	V
e 	61.062	61.142	0.08	V
l 	61.142	61.202	0.06	V
ə 	61.202	61.302	0.1		V
m 	61.302	61.362	0.06	V
i 	61.362 	61.402	0.04	V
n 	61.402	61.452	0.05	V
i 	61.452	61.502	0.05	V
s 	61.502	61.582	0.08	U
t 	61.582	61.622	0.04	U
R  	61.622	61.672	0.05	V
(ə) 61.672	61.762	0.09	V
R 	61.762	61.812	0.05	V
y 	61.812	61.942	0.13	V
s 	61.942	62.032	0.09	U
d 	62.032	62.102	0.07	V
e 	62.102	62.182	0.08	V
z 	62.182	62.262	0.08	U
a 	62.262	62.332	0.07	V
f 	62.332	62.452	0.12	U
ɛ 	62.452	62.502	0.05	V
R 	62.502	62.562	0.06	V
Z 	62.562	62.622	0.06	U
e 	62.622	62.692	0.07	V
t 	62.692	62.752	0.06	U
R 	62.752	62.792	0.04	V
ɑ̃ 	62.792	62.892	0.1		V
ʒ 	62.892	62.942	0.05	V
ɛ 	62.942	63.062	0.12	V
R 	63.062	63.102	0.04	V
S 	63.102	63.232	0.13	U
ɛ 	63.232	63.312	0.08	V
R 	63.312	63.352	0.04	V
g 	63.352	63.432	0.08	V
e 	63.432	63.532	0.1		V
j 	63.532	63.592	0.06	V
l 	63.592	63.642	0.05	V
a 	63.642	63.732	0.09	V
v 	63.732	63.792	0.06	V
R 	63.792	63.842	0.05	V
ɔ 	63.842	63.992	0.15	V
f 	63.992	64.142	0.15	U
# 	64.142	64.622	0.48	S
d 	64.622	64.662	0.04	V
i  	64.662	64.722	0.06	V
s 	64.722	64.792	0.07	U
k 	64.792	64.862	0.07	U
y 	64.862	64.932	0.07	V
t 	64.932	64.972	0.04	U
R 	64.972	65.042	0.07	V
ɔ̃ 	65.042	65.162	0.12 	V
m 	65.162	65.262	0.1		V
ɛ 	65.262	65.332	0.07	V
R 	65.332	65.402	0.07	V
k 	65.402	65.452	0.05	U
R 	65.452	65.542	0.09	V
ə 	65.542	65.612	0.07	V
d 	65.612	65.692	0.08	V
i 	65.692	65.852	0.16	V